<svg xmlns="http://www.w3.org/2000/svg" width="223" height="198" fill="none" viewBox="0 0 223 198">
  <path fill="#FF611D" fill-rule="evenodd" d="M38.67 5.687c-4.287 7.122-8.039 17.516-9.693 26.856-1.617 9.128-.845 26.787 1.553 35.543l1.821 6.649-5.432 8.689c-6.632 10.609-15.21 20.2-21.915 24.502-2.759 1.771-5.011 3.51-5.004 3.865.008.355 7.32 5.681 16.25 11.835 40.008 27.572 57.09 41.01 65.505 51.534 14.757 18.454 19.81 22.219 29.732 22.155 9.869-.065 14.417-3.255 26.949-18.902 3.975-4.963 10.113-11.545 13.639-14.628 7.818-6.833 31.642-24.362 54.162-39.848 9.198-6.325 16.729-11.791 16.737-12.146.007-.355-2.218-2.077-4.944-3.826-6.823-4.379-15.502-14.045-21.975-24.477l-5.432-8.753 1.826-6.65c4.2-15.291 2.873-36.907-3.203-52.148C186.509 9.072 181.271-.107 180.151 0c-.365.035-7.276 7.839-15.356 17.343l-14.693 17.279-6.807-2.282c-9.762-3.272-18.035-4.388-32.6-4.396-13.252-.008-24.107 1.632-32.89 4.969l-4.762 1.81-14.778-17.325C50.137 7.87 43.182.044 42.809.006c-.372-.038-2.235 2.518-4.139 5.68Zm15.29 26.718 7.217 8.5-3.261 2.767c-1.794 1.52-4.077 3.347-5.075 4.057-.997.71-3.804 3.737-6.237 6.723-5.313 6.523-5.623 6.117-5.602-7.347.013-8.4 1.877-20.566 3.571-23.308.814-1.315 1.484-.701 9.387 8.608Zm126.449-1.51c1.551 6.818 2.115 22.438.965 26.725-.529 1.973-1.045 1.638-5.38-3.5-2.638-3.126-6.85-7.258-9.361-9.183-2.51-1.925-4.47-3.806-4.355-4.18.584-1.9 14.975-17.774 15.704-17.323.467.289 1.56 3.646 2.427 7.46ZM137.487 43.89c18.218 5.824 27.992 14.96 44.851 41.92 7.437 11.894 7.63 12.353 4.944 11.776-8.246-1.772-29.543-3.748-34.795-3.228-20.703 2.05-31.808 19.713-33.213 52.828l-.584 13.75h-14.406l-.584-13.75c-1.152-27.146-8.84-43.997-22.986-50.383-4.594-2.074-6.62-2.344-16.727-2.231-6.325.07-15.663.856-20.75 1.746-5.088.89-9.46 1.618-9.716 1.618-.617 0 14.005-23.386 17.819-28.5 8.477-11.368 19.7-20.443 29.787-24.086 10.053-3.63 16.098-4.372 32.86-4.033 13.708.278 17.684.713 23.5 2.573Zm-63.184 64.495c5.258 1.875 7.248 3.919 10.763 11.059 3.919 7.961 5.843 19.044 5.886 33.911l.035 11.919-7.25-6.951c-9.067-8.693-15.51-13.744-38.75-30.38-10.175-7.284-18.636-13.599-18.803-14.033-.322-.842 9.109-3.179 19.803-4.906 13.643-2.204 23.281-2.415 28.316-.619Zm103.184.659c10.871 1.86 19.61 4.063 19.303 4.866-.167.434-8.628 6.749-18.803 14.033-23.24 16.636-29.683 21.687-38.75 30.38l-7.25 6.951.035-11.919c.043-14.867 1.967-25.95 5.886-33.911 5.284-10.733 9.522-12.842 24.079-11.986 5.225.308 12.2 1.021 15.5 1.586Zm-117.845 7.721c-2.33 2.575-2.134 8.427.358 10.683 4.513 4.084 11.987 1.001 11.987-4.944 0-4.886-2.446-7.568-6.902-7.568-2.4 0-4.395.67-5.443 1.829Zm92.902.394c-5.149 7.351 3.858 16.236 10.43 10.289 2.621-2.372 2.726-8.557.184-10.857-2.736-2.476-8.706-2.157-10.614.568Zm-33.557 60.751c0 3.39-.434 4.199-2.95 5.5-1.623.839-3.67 1.526-4.55 1.526-.88 0-2.927-.687-4.55-1.526-2.516-1.301-2.95-2.11-2.95-5.5v-3.974h15v3.974Z" clip-rule="evenodd"/>
</svg>
