<svg xmlns="http://www.w3.org/2000/svg" width="144" height="144" fill="none" viewBox="0 0 144 144">
  <path fill="#fff" d="M144 72c0 39.764-32.235 72-72 72-39.764 0-72-32.236-72-72C0 32.235 32.236 0 72 0c39.765 0 72 32.235 72 72Z"/>
  <path fill="#E60023" d="M72 0C32.236 0 0 32.236 0 72c0 30.503 18.978 56.578 45.761 67.069-.629-5.696-1.198-14.457.25-20.676 1.308-5.62 8.443-35.789 8.443-35.789S52.3 78.291 52.3 71.914c0-10.011 5.803-17.486 13.028-17.486 6.143 0 9.11 4.612 9.11 10.142 0 6.178-3.933 15.414-5.963 23.973-1.696 7.166 3.594 13.011 10.662 13.011 12.797 0 22.634-13.493 22.634-32.97 0-17.24-12.387-29.293-30.075-29.293-20.486 0-32.511 15.366-32.511 31.246 0 6.188 2.383 12.824 5.358 16.431.589.713.675 1.337.5 2.065-.547 2.274-1.762 7.165-2 8.166-.314 1.317-1.044 1.597-2.408.962-8.992-4.186-14.615-17.333-14.615-27.893 0-22.712 16.502-43.57 47.574-43.57 24.976 0 44.386 17.798 44.386 41.584 0 24.814-15.645 44.784-37.361 44.784-7.296 0-14.155-3.791-16.503-8.268 0 0-3.61 13.747-4.486 17.116-1.625 6.254-6.013 14.093-8.948 18.875A71.957 71.957 0 0 0 72 144c39.765 0 72-32.236 72-72S111.765 0 72 0Z"/>
</svg>
