<svg xmlns="http://www.w3.org/2000/svg" width="604" height="145" fill="none" viewBox="0 0 604 145">
  <path fill="#E60023" d="M238.153 51.97h19.071v59.903h-19.071V51.971Zm23.053 0h18.368v8.19h.351c4.446-6.435 10.178-9.944 18.485-9.944 13.103 0 20.825 9.36 20.825 22.697v38.959h-19.07V76.774c0-6.318-3.159-10.648-9.359-10.648-6.318 0-10.53 5.266-10.53 12.636v33.11h-19.07V51.971Zm-2.079-16.025c0-6.318-5.121-11.44-11.439-11.44s-11.439 5.122-11.439 11.44 5.121 11.439 11.439 11.439 11.439-5.121 11.439-11.439Zm194.232 15.161a21.408 21.408 0 0 0-1.898-.07c-7.254 0-12.167 3.158-16.379 10.295h-.351v-9.36H416.48v59.901h19.07V84.964c0-12.468 6.904-18.246 17.809-17.238v-16.62Zm93.584 22.976c-7.604-1.403-14.39-1.988-14.39-6.2 0-3.744 3.627-5.499 8.307-5.499 5.264 0 8.892 1.638 9.593 7.02h17.55c-.936-11.816-10.062-19.187-27.025-19.187-14.158 0-25.857 6.552-25.857 19.187 0 14.039 11.115 16.847 21.528 18.602 7.955 1.404 15.208 1.99 15.208 7.37 0 3.862-3.626 5.967-9.359 5.967-5.752 0-9.555-2.433-10.722-7.37h-18.171c1.337 12.314 12.146 19.772 29.01 19.772 15.677 0 27.26-6.786 27.26-19.889 0-15.327-12.402-18.017-22.932-19.773Zm-64.001-10.295c6.2 0 10.646 4.563 11.348 11.7h-23.633c1.287-7.137 5.031-11.7 12.285-11.7Zm1.053 36.151c-7.839 0-12.285-5.03-13.455-13.103h43.054c.117-12.167-3.392-22.58-10.529-29.131-5.148-4.68-11.934-7.488-20.475-7.488-18.251 0-30.769 13.688-30.769 31.589 0 18.133 12.168 31.822 31.939 31.822 7.604 0 13.689-1.989 18.72-5.498 5.264-3.627 8.774-8.775 10.061-14.157h-18.602c-1.638 3.744-4.913 5.966-9.944 5.966Zm119.466-2.191c-.883.035-2.069.087-3.159.087-4.095 0-6.669-1.17-6.669-5.85v-28.08h9.828V51.972h-9.828V33.018h-18.602v18.953h-5.854v11.934h5.854v32.173c0 12.87 7.956 16.497 19.071 16.497 4.24 0 7.445-.318 9.359-.691V97.747Zm-250.17.026c-.761.03-1.639.06-2.459.06-4.094 0-6.669-1.17-6.669-5.85v-28.08h9.128V51.97h-9.128V33.017h-18.602V51.97h-6.203v11.934h6.203v32.173c0 12.871 7.955 16.497 19.07 16.497 3.761 0 6.705-.251 8.66-.567V97.773Z"/>
  <path fill="#E60023" d="M394.83 75.487c-.702-7.137-5.149-11.7-11.349-11.7-7.254 0-10.998 4.563-12.285 11.7h23.634Zm-42.469 6.318c0-17.9 12.518-31.589 30.769-31.589 8.54 0 15.326 2.808 20.474 7.488 7.137 6.551 10.646 16.964 10.529 29.131H371.08c1.169 8.073 5.615 13.104 13.454 13.104 5.03 0 8.307-2.223 9.944-5.967h18.603c-1.288 5.382-4.797 10.53-10.062 14.157-5.031 3.509-11.114 5.498-18.719 5.498-19.772 0-31.939-13.688-31.939-31.822ZM205.035 67.531c7.488 0 11.7-4.446 11.7-11.115 0-6.668-4.329-10.763-11.7-10.763H190.41V67.53h14.625Zm-33.932-39.31h33.116c10.178 0 17.666 2.807 22.814 7.721 5.382 5.03 8.424 12.168 8.424 20.591 0 16.028-11.115 27.377-28.313 27.377H190.41v27.962h-19.307V28.221Z"/>
  <path fill="#fff" d="M144.924 72.561c0 39.764-32.236 72-72 72s-72-32.236-72-72 32.236-72 72-72 72 32.236 72 72Z"/>
  <path fill="#E60023" d="M72.924.562c-39.764 0-72 32.235-72 72 0 30.502 18.978 56.578 45.762 67.068-.63-5.696-1.198-14.457.25-20.676 1.308-5.619 8.442-35.788 8.442-35.788s-2.153-4.314-2.153-10.69c0-10.012 5.803-17.486 13.028-17.486 6.142 0 9.11 4.612 9.11 10.142 0 6.178-3.934 15.414-5.963 23.973-1.697 7.166 3.593 13.01 10.662 13.01 12.796 0 22.633-13.493 22.633-32.97 0-17.24-12.387-29.292-30.075-29.292-20.486 0-32.51 15.365-32.51 31.245 0 6.189 2.383 12.824 5.358 16.432.588.713.674 1.337.499 2.065-.547 2.274-1.761 7.164-2 8.165-.314 1.318-1.043 1.598-2.408.963-8.992-4.186-14.614-17.333-14.614-27.893 0-22.712 16.502-43.57 47.573-43.57 24.977 0 44.386 17.797 44.386 41.583 0 24.814-15.645 44.784-37.36 44.784-7.297 0-14.156-3.791-16.504-8.268 0 0-3.61 13.747-4.485 17.116-1.626 6.254-6.014 14.093-8.949 18.875a71.957 71.957 0 0 0 21.318 3.211c39.765 0 72-32.236 72-72s-32.235-72-72-72Z"/>
</svg>
